<svg xmlns="http://www.w3.org/2000/svg" xmlns:xlink="http://www.w3.org/1999/xlink" viewBox="0 0 750 500"><defs><style>.cls-1{fill:none;}.cls-2{fill:#fff;}.cls-3{clip-path:url(#clip-path);}.cls-4{fill:#efc79c;}.cls-5{fill:#1d3d63;}.cls-6{fill:#f7c58d;}.cls-7{fill:#f35;}.cls-8{fill:#ff7190;}.cls-9{fill:#333;}.cls-10{fill:#ffecc5;}.cls-11{fill:#e2e2e2;}.cls-12{fill:#a5a5a5;}.cls-13{fill:#7f7f7f;}.cls-14,.cls-31{fill:#cc6900;}.cls-15{fill:#ffcf03;}.cls-16{fill:#efefef;}.cls-17{fill:#ffb206;}.cls-18{fill:#d18700;}.cls-19{fill:#ffe10b;}.cls-20{fill:#4c4c4c;}.cls-21{fill:#efc100;}.cls-22{fill:#21457a;}.cls-23{fill:#353535;}.cls-24{fill:#ffdaae;}.cls-25{fill:#275389;}.cls-26{fill:#52a5f6;}.cls-27{fill:#67b7f9;}.cls-28{fill:#bbe0ff;}.cls-29{fill:#d2f0ff;opacity:0.49;}.cls-30{fill:#ea9c00;}.cls-31{font-size:21.23px;font-family:Bauhaus93, "Bauhaus 93";}</style><clipPath id="clip-path"><rect class="cls-1" width="750" height="500"/></clipPath></defs><g id="BACKGROUND"><rect class="cls-2" width="750" height="500"/></g><g id="OBJECTS"><g class="cls-3"><polygon class="cls-4" points="364.03 311.55 359.05 319.62 357.41 321.93 366.21 326.69 372.17 316.89 364.03 311.55"/><path class="cls-5" d="M352.93,225.7s53.07,16.65,60.39,25.52-40.47,67.31-40.47,67.31L361.92,312s15.56-38.34,29.08-45.06c2.7-4.63-24.92-7.9-48.23-9.35s-19-15.35-11.45-32.4C345,219.34,352.93,225.7,352.93,225.7Z"/><path class="cls-6" d="M346.84,147s5.62-11.56,6.39-18.22c8.12,10.53,14.71,15.6,14.87,16.06-6.46,6.9-7.9,17.6-7.9,17.6Z"/><path class="cls-7" d="M267.46,285.24h-8.81a7.55,7.55,0,0,0-6.08,3.07l-7.44,10.1a7.52,7.52,0,0,0-.29,8.5l3.67,5.78Z"/><path class="cls-8" d="M244.38,301.85l7.44-10.1a7.55,7.55,0,0,1,6.07-3.07h7.19l2.38-3.45h-8.81a7.55,7.55,0,0,0-6.08,3.07l-7.44,10.1a7.41,7.41,0,0,0-1.44,4.62A6.91,6.91,0,0,1,244.38,301.85Z"/><circle class="cls-9" cx="472.81" cy="348.48" r="33.08"/><circle class="cls-10" cx="472.81" cy="348.48" r="25.53"/><circle class="cls-11" cx="472.81" cy="348.48" r="19.65"/><circle class="cls-12" cx="472.81" cy="348.48" r="16.94"/><rect class="cls-11" x="462.58" y="311.33" width="7.79" height="39.47" transform="translate(-85.89 182.42) rotate(-20.3)"/><circle class="cls-9" cx="472.81" cy="348.48" r="5.1"/><circle class="cls-13" cx="472.81" cy="348.48" r="2.59"/><circle class="cls-9" cx="287.03" cy="348.23" r="33.08"/><circle class="cls-10" cx="287.03" cy="348.23" r="25.53"/><circle class="cls-11" cx="287.03" cy="348.23" r="19.65"/><circle class="cls-12" cx="287.03" cy="348.23" r="16.94"/><circle class="cls-9" cx="287.03" cy="348.23" r="5.1"/><circle class="cls-13" cx="287.03" cy="348.23" r="2.59"/><path class="cls-14" d="M446.57,325.45s27.1-13.32,55.85-5.91c-.21-15-11.69-35.23-46-27S446.57,325.45,446.57,325.45Z"/><path class="cls-15" d="M454.47,294.27c-5.86,1.41-10,3.3-12.84,5.47a12.71,12.71,0,0,0-2.49,3.64A36.48,36.48,0,0,1,451,298.6c28.88-6.93,41.57,6.33,45,19.62,1.44.23,2.89.5,4.35.83C499.08,304.4,487.11,286.43,454.47,294.27Z"/><path class="cls-16" d="M438.61,191.78s7.3,12.88.61,22.3C433.46,212.66,438.61,191.78,438.61,191.78Z"/><path class="cls-17" d="M456.43,292.55l10.59-3s-9.86-29.7-35.8-74.15c-2.31,1-4.91,1.78-4.91,1.78Z"/><path class="cls-17" d="M416.71,217.58S439.6,272.26,426.2,302c-2.63,10.14,10.16,7.39,10.16,7.39s14.65-33-15.85-94C419.1,214.56,416.71,217.58,416.71,217.58Z"/><path class="cls-17" d="M373.31,265.74l-72.73-.09c-11.66,0-48.5,15.89-59.92,65.28L312,331c8.9,0,10.65,16,10.65,16l89.25.12c10.44,0,28.9-40.16,19.11-60.73-4.33,21.47-13.85,32.51-24.6,35.56-8.26,2.35-32.49,2.14-43.24,1.92a6.93,6.93,0,0,1-6.61-5.42c-1.34-6-3-15.94-1.36-24.49C357.64,280.76,372.06,278.94,373.31,265.74Z"/><path class="cls-14" d="M239.12,333.69l87,.11s12.7-27.14,2.59-42.57-51.77-10.65-69.51,5S239.12,333.69,239.12,333.69Z"/><path class="cls-18" d="M323.26,333.8c2.52-6.09,9.85-26.33,1.7-38.69-9.18-13.91-45.54-10.54-63.77,2.51,19.3-9.3,48.33-10.42,56.4,1.81,6.74,10.21,2.89,25.82-.07,34.36Z"/><path class="cls-15" d="M320.12,337.71l72.73.09c15.88,0,47.2-24.56,40.93-62.31s-15.92-55.72-15.92-55.72l11.05-3.36s21.12,41.15,25.71,53.43,11.45,45.28-13.44,68c-10.14,8.5-18,11.94-29.47,11.93l-88.38-.12Z"/><path class="cls-19" d="M454.62,269.84c-4.59-12.28-25.71-53.43-25.71-53.43l-4.12,1.26c5.08,10.57,19.72,41.5,22.92,53.23,3.46,12.65,10.8,46.55-14.09,69.3A55.89,55.89,0,0,1,420,349.07c7.4-1.4,13.64-4.91,21.14-11.2C466.07,315.12,459.21,282.12,454.62,269.84Z"/><path class="cls-20" d="M394.46,341c15.88,0,48.21-25.67,41.94-63.43C430.74,243.48,421,223,419.17,219.38l-1.31.39s9.64,18,15.92,55.72-25,62.34-40.93,62.31l-72.73-.09.86,3.19Z"/><path class="cls-20" d="M305.4,250s-11.53,15.64.55,15.65l67.36.09c3.3,0,7.8-12.64,1.7-13.11s-25,1.81-39.24-1.44S309.78,245,305.4,250Z"/><path class="cls-15" d="M416.94,220.69s14.74-4.81,16.58-5.27,5.75-.91,5.75-.91-2.39-17.73,0-22.67c-5.17-5-12.42-3.36-20,3.77S409,204,409.59,206,416.94,220.69,416.94,220.69Z"/><path class="cls-12" d="M418.15,202.9l-.52-.88,10.45-6.17a3.22,3.22,0,0,0,1.5-2.11l4.1-20.17,1,.2L430.58,194a4.25,4.25,0,0,1-2,2.78Z"/><ellipse class="cls-21" cx="417.88" cy="206.68" rx="6.36" ry="5.98" transform="translate(210.65 624.29) rotate(-89.92)"/><path class="cls-22" d="M403.85,201.23s6.7-.22,9.13-2.45,5.11-2.15,7.56-.09,4.36,6.16,3.3,8.45a4.61,4.61,0,0,1-5.35,2.66c.69,1.61-3.12,1.85-5,1.18s-6.34-1.81-8.11-1.43C403.84,207.56,403.85,201.23,403.85,201.23Z"/><path class="cls-17" d="M414.44,215.91c1.37,2.65,2.5,4.78,2.5,4.78s14.74-4.81,16.58-5.27,5.75-.91,5.75-.91-.44-3.25-.75-7.36C432.7,213.3,423.47,215.38,414.44,215.91Z"/><circle class="cls-23" cx="417.19" cy="205.39" r="3.34"/><ellipse class="cls-15" cx="432.1" cy="170.93" rx="9.61" ry="3.78" transform="translate(191.17 568.27) rotate(-80.35)"/><ellipse class="cls-16" cx="431.5" cy="170.83" rx="7.66" ry="2.4" transform="translate(190.77 567.59) rotate(-80.35)"/><polygon class="cls-24" points="375.74 314.08 372.04 322.82 370.77 325.35 380.2 328.71 384.59 318.12 375.74 314.08"/><path class="cls-22" d="M353.79,228.32s54.61,10.52,62.89,18.51-31.59,73.24-31.59,73.24l-11.6-5.26s10.12-41.63,22.79-49.84c2.16-4.91-25.65-5-49-3.83s-31-15.07-25.42-32.86C334.77,220.93,353.79,228.32,353.79,228.32Z"/><path class="cls-25" d="M385.09,320.07s39.86-65.25,31.59-73.24c-6.12-5.9-37.56-13.19-53.54-16.6a25.16,25.16,0,0,0-16.65,7.28c12.66-2.63,52.93,6.63,60.75,8.72s8.39,6.11,5.85,12.89c-2.45,6.56-24.17,50.62-29.91,60.08Z"/><path class="cls-26" d="M321.18,232.3s-5.37-58.65,25.66-85.31c7.67,3.39,13.79,12.29,16.85,20s.85,56.46-.08,60.14c-.24,1-2.59,2.09-6.15,3.14C347.37,233.21,330.25,235.94,321.18,232.3Z"/><path class="cls-22" d="M346.5,233.82s11.82-5,13.54-28.51,1.42-34.47,1.42-34.47,5.5,17.49,5.8,29.42-1.57,25.12-3.88,30.79S346.5,233.82,346.5,233.82Z"/><path class="cls-27" d="M349.25,174.88c1.71,10.33,7.43,35.29,12.08,40.1,7.68,8,44.65-2.51,44.65-2.51l-1.21-11.23c-11.51-.17-27.16-.2-29.62-1.28s-7.36-25.35-8.74-30.42-5.24-8.15-11.69-7.85S348.65,171.23,349.25,174.88Z"/><path class="cls-22" d="M324.17,234.21s-.87-33.76,5.13-47c10.15-16.93,18.21-24.73,23.16-26.27a11.11,11.11,0,0,1,9.1,1.43,15.31,15.31,0,0,0-2.58-4.3c-1.37-1.28-7.2-2.71-12.38,1.08s-18.92,20.31-21.53,26.62c-3.66,8.85-4.23,17.48-4.39,47.4C321.47,234.78,324.17,234.21,324.17,234.21Z"/><path d="M372,322.82s1.92,4.9,8.67,4.67c4.44,4,15.83,4.11,19.82,4s2.6,4.6-3.08,6.13-29.46.19-31.91.19S366.78,325.65,372,322.82Z"/><path class="cls-6" d="M380.34,136.64c.49-1.52-2.18-4.43,0-9s-3.78-8.58-3.78-8.58l-.33.45c-2.71-4.47-7-7.36-11.77-7.37-8.2,0-14.87,8.38-14.88,18.74s6.63,18.43,14.84,18.44c.23,0,.44.3.66.29,3.25,2.13,7.72.21,8.28-1.27.69-1.84,1.12-2.93,2.25-2.93s.83-1.44,0-2.16c.61.21,1.84.09,1.64-.34s.2-1.35.51-3.7C380.72,140.45,381.2,137.45,380.34,136.64Z"/><path class="cls-23" d="M347.77,139.07l.36,5.12s8.67,2.6,11.21-2.54S347.77,139.07,347.77,139.07Z"/><path class="cls-23" d="M373.64,129.15s3.88-1.22,5.22,0c.15.42-.3,1-1,.8S374.77,129.25,373.64,129.15Z"/><path class="cls-28" d="M380.61,134.57c-1.18-.06-8.3,0-10.92,0v0L365,133l-.29.87,4.06,1.31c.19,2.87-2.22,6.23-3.35,7.64l-2.15-3-.75.54,2.36,3.3c.2.77,1.41,4.51,6.62,6.86C377.91,148.26,382.45,138.25,380.61,134.57Z"/><path class="cls-23" d="M372.62,125.77c.49.08,7.28.82,9.73,4.2,2-1.7-.77-4.53-.77-4.53Z"/><path class="cls-14" d="M369.29,125.71s12.91,1.6,16.82,3.1c2.2-9.78-4.58-18-15.28-21s-21.94,2.11-25.64,12.12-1.28,14.51,1.13,18.26c1.95,3,5,5.25,13.65,4.73,5.69-.34,5.72-8.52,6.51-11.55S367.56,125.29,369.29,125.71Z"/><path class="cls-14" d="M370.65,107.82A22,22,0,0,0,352,110.87a22.42,22.42,0,0,1,13.37-.37c9.25,2.58,15.56,9,15.71,17a32.31,32.31,0,0,1,4.84,1.23C388.14,119,381.35,110.81,370.65,107.82Z"/><path class="cls-23" d="M368,124.34c-1.73-.42-2,2.57-2.81,5.67s-.82,11.22-6.52,11.56c-6.31.37-9.63-.71-11.72-2.49,2,2.57,5.23,4.32,13,3.86,5.69-.34,5.72-8.52,6.51-11.55s1.08-6.1,2.81-5.68c0,0,12.91,1.6,16.82,3.1.13-.6.23-1.2.3-1.79C382.36,125.54,368,124.34,368,124.34Z"/><path class="cls-29" d="M387.3,125.3a41,41,0,0,1-11.25,27.16c-3.47,1.7-15.5-2.8-13.72-14.79,1.27-8.48,0-14.66,2.58-16S379.63,125.52,387.3,125.3Z"/><path class="cls-20" d="M328.75,271.9l-34.2,0a7,7,0,0,1-6-3.39l-4.18-7a2.38,2.38,0,0,0-2-1.15l-56.73-.07a2.31,2.31,0,0,1,0-4.61l56.74.08a7,7,0,0,1,6,3.39l4.17,7a2.39,2.39,0,0,0,2,1.15l34.21.05a2.3,2.3,0,1,1,0,4.6Z"/><rect class="cls-17" x="216.11" y="183.66" width="77.57" height="72.04" rx="6.14" transform="translate(0.29 -0.34) rotate(0.08)"/><path class="cls-30" d="M293.71,201l0-11.2a6.13,6.13,0,0,0-6.13-6.14l-65.3-.09a6.15,6.15,0,0,0-6.15,6.13v11.2Z"/><path class="cls-15" d="M295.08,198.07v-8.26a6.35,6.35,0,0,0-6.34-6.36l-67.6-.09a6.35,6.35,0,0,0-6.36,6.35l0,8.26Z"/><text class="cls-31" transform="translate(230.98 225.02) scale(0.78 1)">MESOB</text></g></g></svg>